<?xml version="1.0" encoding="UTF-8"?>
<svg id="Capa_2" data-name="Capa 2" xmlns="http://www.w3.org/2000/svg" xmlns:xlink="http://www.w3.org/1999/xlink" viewBox="0 0 127.46 127.64">
  <defs>
    <style>
      .cls-1 {
        fill: url(#Degradado_sin_nombre_7);
      }

      .cls-2 {
        fill: url(#Degradado_sin_nombre_7-2);
      }
    </style>
    <linearGradient id="Degradado_sin_nombre_7" data-name="Degradado sin nombre 7" x1="0" y1="84.35" x2="127.46" y2="84.35" gradientUnits="userSpaceOnUse">
      <stop offset="0" stop-color="#63ead3"/>
      <stop offset="1" stop-color="#0a2c4d"/>
    </linearGradient>
    <linearGradient id="Degradado_sin_nombre_7-2" data-name="Degradado sin nombre 7" y1="15.98" y2="15.98" xlink:href="#Degradado_sin_nombre_7"/>
  </defs>
  <g id="OBJECTS">
    <g>
      <path class="cls-1" d="M127.46,41.06v75.96c0,4.22-8.1,11.38-12.78,10.55l-103.02-.02c-4.29.18-11.66-6.6-11.66-10.53V41.06h127.46ZM45.36,56.01c-4.84-4.84-9.5,5.26-11.43,4.92-2.9-2.26-6.87-9.07-11.01-4.92s2.31,8.85,4.95,11.51c-2.53,2.87-9.13,6.94-4.85,11.12,3.77,3.68,8.48-2.62,10.85-5.15,1.77-.46,6.71,9.73,11.39,5.15,4.28-4.19-2.32-8.24-4.85-11.12,2.64-2.65,8.93-7.53,4.95-11.51ZM104.54,56.01c-4.84-4.84-9.5,5.26-11.43,4.92-2.9-2.26-6.87-9.07-11.01-4.92s2.66,8.11,4.92,11.01c.34,1.95-9.91,6.63-4.82,11.61,4.68,4.58,9.42-5.44,11.33-5.1,2.85,2.17,6.88,9.05,10.91,5.1,5.1-4.98-5.16-9.66-4.82-11.61,2.26-2.9,9.07-6.87,4.92-11.01ZM44.79,95.8c-5.45,1.99-4.6,8.14,1.07,8.93,6.38.89,29.36.89,35.74,0,5.99-.84,6.26-7.52.59-9.02l-37.4.09Z"/>
      <path class="cls-2" d="M127.46,31.95H0V10.62C0,6.39,8.1-.76,12.78.07l103.02.02c4.29-.18,11.66,6.6,11.66,10.53v21.34ZM22.04,11.56c-7.62,1.38-1.69,13.39,3.87,7.33,3.15-3.43-.41-7.96-3.87-7.33ZM40.25,11.56c-7.62,1.38-1.69,13.39,3.87,7.33,3.15-3.43-.41-7.96-3.87-7.33Z"/>
    </g>
  </g>
</svg>