<?xml version="1.0" encoding="UTF-8"?>
<svg id="Capa_2" data-name="Capa 2" xmlns="http://www.w3.org/2000/svg" xmlns:xlink="http://www.w3.org/1999/xlink" viewBox="0 0 190.98 225.37">
  <defs>
    <style>
      .cls-1 {
        fill: #0091e3;
      }

      .cls-1, .cls-2, .cls-3, .cls-4, .cls-5, .cls-6, .cls-7, .cls-8, .cls-9, .cls-10 {
        stroke-linecap: round;
        stroke-linejoin: round;
      }

      .cls-1, .cls-3, .cls-5 {
        stroke: #060f16;
      }

      .cls-11 {
        stroke: #081523;
        stroke-miterlimit: 10;
      }

      .cls-11, .cls-12, .cls-5, .cls-8 {
        fill: none;
      }

      .cls-2 {
        stroke: #06101c;
      }

      .cls-2, .cls-3, .cls-13 {
        fill: #ffebdb;
      }

      .cls-14 {
        fill: #601222;
      }

      .cls-4 {
        fill: #4aff47;
        stroke: #0a2133;
      }

      .cls-15 {
        fill: #95a5b5;
      }

      .cls-16 {
        clip-path: url(#clippath-1);
      }

      .cls-17 {
        fill: #174566;
      }

      .cls-18 {
        fill: #0a2c4d;
      }

      .cls-19 {
        fill: #63ead3;
      }

      .cls-6 {
        stroke: #040d14;
      }

      .cls-6, .cls-7, .cls-20, .cls-9, .cls-10 {
        fill: #bcd9ff;
      }

      .cls-7 {
        stroke: #05121c;
      }

      .cls-8 {
        stroke: #95a5b5;
      }

      .cls-9 {
        stroke: #040b11;
      }

      .cls-21 {
        clip-path: url(#clippath-2);
      }

      .cls-22 {
        clip-path: url(#clippath);
      }

      .cls-10 {
        stroke: #040f19;
      }
    </style>
    <clipPath id="clippath">
      <polygon class="cls-20" points="103.81 96.7 86.91 95.72 88.35 78.96 104.07 79.87 103.81 96.7"/>
    </clipPath>
    <clipPath id="clippath-1">
      <path class="cls-3" d="M104.09,96.72c14,.81,24.69,12.82,23.88,26.82l-3.15,54.14-.03.61c-31.58.56-58.57-5.31-68.2-7.71l.04-.57,2.92-50.44c.82-14,12.82-24.69,26.82-23.88"/>
    </clipPath>
    <clipPath id="clippath-2">
      <circle class="cls-12" cx="95.49" cy="126.25" r="95.49"/>
    </clipPath>
  </defs>
  <g id="OBJECTS">
    <circle class="cls-19" cx="95.49" cy="126.25" r="95.49"/>
    <g>
      <g>
        <g>
          <polygon class="cls-20" points="103.81 96.7 86.91 95.72 88.35 78.96 104.07 79.87 103.81 96.7"/>
          <g class="cls-22">
            <path class="cls-15" d="M104.33,79.24l-.3,12.5c-2.75.76-5.72.9-8.7.23-3.13-.69-5.87-2.18-8.09-4.2l.88-9.47,16.21.94Z"/>
          </g>
        </g>
        <g>
          <path class="cls-7" d="M124.83,65.18c-1.72-2.2-4.74-2.85-7.53-1.88l.52-3.29c1.48-9.45-5.03-18.39-14.48-19.88-9.45-1.49-18.39,5.03-19.88,14.48l-.52,3.29c-2.35-1.78-5.43-2.09-7.74-.52-2.99,2.03-3.54,6.43-1.24,9.82,1.71,2.51,4.5,3.76,7.05,3.43-.67,8.91,5.65,17.06,14.62,18.48h0c8.98,1.41,17.49-4.41,19.59-13.1,2.32,1.1,5.36.77,7.76-1.1,3.24-2.52,4.06-6.88,1.84-9.73Z"/>
          <path class="cls-15" d="M76.45,61.34s5.88.34,5.69,6.48l-5.69-6.48Z"/>
          <path class="cls-15" d="M122.86,68.63s-5.7-1.48-7.4,4.42l7.4-4.42Z"/>
          <g>
            <path class="cls-14" d="M92.39,64.79h0c-.58-.09-.97-.64-.88-1.21l.59-3.77c.09-.58.64-.97,1.21-.88h0c.58.09.97.64.88,1.21l-.59,3.77c-.09.58-.64.97-1.21.88Z"/>
            <path class="cls-14" d="M106.21,66.96h0c-.58-.09-.97-.64-.88-1.21l.59-3.77c.09-.58.64-.97,1.21-.88h0c.58.09.97.64.88,1.21l-.59,3.77c-.09.58-.64.97-1.21.88Z"/>
            <circle cx="92.85" cy="61.85" r="3.16"/>
            <circle cx="106.67" cy="64.03" r="3.16"/>
          </g>
          <path class="cls-8" d="M101.6,63.89s-1.2,3.63.79,5.72l-2.31,1.68"/>
          <path class="cls-2" d="M104.07,75.3c-.53,3.37-3.69,5.67-7.06,5.14-3.37-.53-5.67-3.69-5.14-7.06l12.21,1.92Z"/>
          <path d="M120.94,41.61c-1.16-1.33-5.53.19-7.93.7,1.02-1.81,1.73-4.9-.38-5.74-4.59-1.85-22.25,3.36-25.29,5.59-4.09,3-4.87,18.88-4.87,18.88,0,0,5.06-2.84,5.26-4.22.2-1.37-.72-3.91-.62-5.22.27-3.37,4.36-7.94,9.69-6.31,1.85.57,5.49,3.3,5.49,3.3,0,0,4.35-1.35,6.28-1.26,5.57.26,7.89,5.94,7,9.2-.34,1.27-2.06,3.35-2.34,4.71-.28,1.36,3.5,5.7,3.5,5.7,0,0,.47-1.17.96-3.04,1.86-6.12,5.59-19.6,3.25-22.3Z"/>
        </g>
        <line class="cls-11" x1="87.77" y1="85.71" x2="86.91" y2="95.72"/>
        <line class="cls-11" x1="103.93" y1="88.38" x2="103.81" y2="96.7"/>
      </g>
      <g>
        <path class="cls-6" d="M146.35,208.26c.23.98.39,1.68.39,1.68.16.78.66,3.81,3.39,2.9,1.74-.58,2.88-2.25,2.49-4.05l-1.05-5.14c-.08-.36-.43-1.92.25-2.25,1.07-.53,2.56,5.03,3.09,7.02.6,2.16,2.78,10.44,2.78,10.44.34,1.59,1.8,3.38,4.05,2.87h0c.06.29,1.14,3.63,4.26,3.08,1.77-.31,2.79-2.23,2.46-4,0,0-1.44-13.41-1.74-14.7-1.17-4.99-6.6-17.69-6.6-17.69l-15.22,7.19c-.89,1.74-.53,3.68-.72,5.81-.12,1.27,1.75,4.97,2.18,6.83Z"/>
        <path class="cls-15" d="M159.41,201.78s3.24,9.23,3.24,9.24c0,0,1.01,5.76,1.01,5.76l.25,1.44c.21,1.5-.77,3-2.15,3.56-.06.02-.1-.06-.04-.09,1.15-.79,1.79-2.08,1.49-3.36,0,0-.36-1.4-.36-1.4-.4-1.68-.99-4.43-1.13-5.6-1.03-3.11-1.9-6.27-2.4-9.52-.02-.06.07-.1.09-.03h0Z"/>
      </g>
      <g>
        <path class="cls-10" d="M28.18,10.99c1.42-.67,3.12-.08,3.79,1.33l4.45,9.31c.15-.12.29-.21.44-.32l-4.53-14.88c-.46-1.5.39-3.09,1.89-3.55,1.51-.45,3.09.39,3.55,1.89l4.42,14.51s.08-.02.13-.02l.36-.03-1.17-15.68c-.12-1.56,1.06-2.93,2.62-3.05,1.57-.12,2.93,1.06,3.05,2.62l1.2,16.03c.18.04.35.06.53.09l.96-10.32c.14-1.57,1.53-2.72,3.09-2.57,1.58.15,2.71,1.53,2.57,3.09l-1.2,12.95c.08.08.15.18.23.26,1.7-3.09,3.48-5.17,3.61-5.31,1.03-1.19,2.82-1.31,4.01-.29,1.18,1.03,1.31,2.82.28,4.01-1.14,1.31-4.05,6.43-5.34,10.89-1.4,4.82-4.99,8.09-9.79,8.47l-3.32.26c-5.9.47-11.1-3.98-11.57-9.87-.1-1.25.04-2.46.35-3.61l-5.95-12.43c-.68-1.42-.08-3.12,1.33-3.79Z"/>
        <path class="cls-15" d="M44.41,33.12c-1.14-4.89,3.47-9.04,8.18-8.84,0,0-.42.23-.42.23.69-.73,1.43-1.4,2.22-2.03.04-.04.12,0,.08.06,0,0-1.78,2.36-1.78,2.36-3.1.43-6.33,2.09-7.52,5.13-.44.97-.57,2.03-.66,3.08,0,.06-.1.06-.1,0h0Z"/>
      </g>
      <g>
        <path class="cls-13" d="M104.09,96.72c14,.81,24.69,12.82,23.88,26.82l-3.15,54.14-.03.61c-31.58.56-58.57-5.31-68.2-7.71l.04-.57,2.92-50.44c.82-14,12.82-24.69,26.82-23.88"/>
        <g class="cls-16">
          <path class="cls-9" d="M109.44,95.21c-.86,7.75-7.36,13.17-15.26,12.36-8.47-.88-15.33-8.61-15.32-17.27l30.58,4.91Z"/>
        </g>
        <path class="cls-5" d="M104.09,96.72c14,.81,24.69,12.82,23.88,26.82l-3.15,54.14-.03.61c-31.58.56-58.57-5.31-68.2-7.71l.04-.57,2.92-50.44c.82-14,12.82-24.69,26.82-23.88"/>
      </g>
      <g>
        <g>
          <g>
            <path class="cls-17" d="M58.48,119.69h0c-.16-.11-.08-.06,0,0Z"/>
            <path class="cls-4" d="M75.41,91.85h-.4c-2.36-1.82-5.78-4.46-5.78-4.46-2.54-1.93-5.04-3.94-6.77-5.43l-1.8-1.6c-.07-.19-.14-.37-.21-.59-.78-2.34-1.46-5.6-2.04-8.88-.61-3.3-1.13-6.78-1.68-10.3-1.07-7.02-2.09-15.25-3.54-22.46l-16.07.73c-2.21,7-3.68,14.44-4.74,21.66-.56,3.87-.96,7.78-1.17,11.85-.17,4.1-.22,8.22.41,13.13.17,1.23.41,2.56.74,3.99,3.4,13.47,15.06,22.85,26.12,30.2.17.12.08.06,0,0l-2.19,23.65s-2.78,6.64-3.99,9.26c-2.09,4.51,2.36,7.59,2.36,7.59l-.06,1.89,26.44,3.58c2.92-23.49,5.86-69.95,5.86-69.95-3.44-3.29-8.43-3.87-11.5-3.87Z"/>
          </g>
          <path class="cls-18" d="M80.45,170.1c-.83.63-8.23-.3-14.49-1.35-5.79-.97-11.9-1.95-12.77-3.09-.57-.75-.04-4.86.77-5.38.69-.45,5.76.8,13.65,1.81,9.84,1.26,13.93,1.24,14.12,2.19.27,1.33-.29,5.06-1.28,5.81Z"/>
          <path class="cls-18" d="M87.37,90.43s-6.18-.12-8.17,2.01c-1.96,2.1-.85,8.75,0,11.49,2.31,7.47,6.28,11.77,6.28,11.77l1.44-19.98.45-5.29Z"/>
          <path class="cls-18" d="M34.75,44.01c-.57-.49-.81-4.96.2-6.07.56-.6,2.23.17,10.33-.06,5.42-.15,9.31-.99,9.66-.78.89.55.73,4.64-.11,5.88-.98,1.45-18.22,2.61-20.08,1.02Z"/>
        </g>
        <g>
          <path class="cls-4" d="M160.11,188.41l-15.22,7.2c-3.01-6.17-6.83-13.43-9.38-19.71-1.31-3.13-2.5-6.29-3.75-9.42-1.76-4.62-3.02-8.18-5.07-12.61l-.07,2.98s2.28,5.76,2.51,7.9c.34,3.16-2.79,3.4-2.79,3.4l-.04,1.78c-10.35-.53-23.88-2.46-23.88-2.46l1.39-70.78c.16.01.63.05,1.63.13,13.54,1.27,30.6,8.22,34.7,16.84,2.94,6.2,3.97,8.2,6.64,14.54,1.37,3.16,2.6,6.37,3.91,9.7,2.68,6.85,4.26,14.25,5.59,21.54.62,3.37,3.22,22.1,3.84,28.96Z"/>
          <path class="cls-18" d="M103.88,91.66s6.36,2.34,7.48,3.99c1.56,2.29.23,7.47-.87,10.12-2.98,7.23-7.07,9.94-7.07,9.94l.37-19,.08-5.05Z"/>
          <path class="cls-18" d="M143.83,195.83c-1.45-.38-3.12-4.02-2.58-5.42.3-.77,4.9-2.1,9.32-4.07,4.59-2.04,8.94-4.91,9.32-4.76,1.39.57,1.76,4.54,1.44,6-.38,1.71-16.18,8.59-17.5,8.24Z"/>
          <path class="cls-17" d="M126.62,153.86c.38-7.24.93-21.95,1.59-29.1.93,4.71.74,9.84.59,14.66-.29,4.87-.78,9.69-2.03,14.45,0,.09-.16.09-.15,0h0Z"/>
          <path class="cls-17" d="M129.88,154.24c1.15-2.82,2.62-5.6,4.92-7.67,1.27-1.21,3.23-1.37,4.85-1.09,1.59.24,3.02.8,4.45,1.44.41.19.59.67.41,1.08-.12.26-.36.43-.61.47-4.03.78-8.16,1.79-11.66,4.03,2.72-2.72,7.6-4.05,11.51-4.92,0,0-.02.16-.02.16-2.02-.83-4.22-1.59-6.42-1.39-2.23.37-3.6,2.53-4.92,4.18-.87,1.2-1.67,2.46-2.41,3.75-.03.05-.12,0-.09-.05h0Z"/>
          <path class="cls-18" d="M126.99,174.54c-.5.45-7.49.22-13.93-.36-6.05-.55-11.7-1.39-11.94-2.4-.34-1.46.09-5.54.71-5.93.7-.44,4.89.33,13.33,1.15,9.88.95,12.12.92,12.43,1.85.29.86.2,4.98-.6,5.69Z"/>
        </g>
      </g>
      <g class="cls-21">
        <path class="cls-1" d="M141.09,344.54l-34.55,3.43-16.02-162.19-9.18,162.72-34.65-1.97,9.27-165.04.63-10.91c9.63,2.4,36.62,8.27,68.2,7.71l-.05.8,16.35,165.45Z"/>
      </g>
    </g>
  </g>
</svg>