<?xml version="1.0" encoding="UTF-8"?>
<svg id="Capa_2" data-name="Capa 2" xmlns="http://www.w3.org/2000/svg" fill="#fff" viewBox="0 0 170.39 36.26">
  <g id="OBJECTS">
    <g>
      <path d="M5.48,0h159.29c3.56,1.04,4.98,3.58,5.25,7.15.44,5.76.56,17.08-.05,22.71-.36,3.32-2.57,6.04-6,6.4l-158.79-.08c-2.68-.64-4.5-3.05-4.91-5.72.47-7.88-.74-16.72-.04-24.49C.49,2.93,2.52.64,5.48,0ZM56.33,2.59H5.7c-.17,0-1.66,1.09-1.88,1.37-.52.66-.86,1.77-.94,2.6-.73,7.42.56,16.06.03,23.62-.05,1,1.99,3.41,2.79,3.41h50.64V2.59ZM114.79,2.59h-55.8v31h55.8V2.59ZM117.45,33.59h46.8c.83,0,2.82-2.08,2.79-3.12-.53-7.75.77-16.59.03-24.21-.09-.91-.29-1.64-.9-2.35-.27-.32-1.67-1.33-1.92-1.33h-46.8v31Z"/>
      <polygon points="40.98 23.84 40.98 28.72 40.54 29.16 18.24 29.16 18.24 23.84 40.98 23.84"/>
      <rect x="74.34" y="15.58" width="20.96" height="13.58"/>
      <polygon points="100.03 10.85 100.03 25.91 97.67 25.91 97.67 13.22 77.3 13.22 77.3 10.85 100.03 10.85"/>
      <path d="M135.94,9.69l6.2,5.86,6.2-5.86,3.66,3.67-5.91,6.2c0,.42,5.64,5.12,5.87,5.96.07.26.09.48-.1.69l-3.26,2.97c-.94.01-4.96-5.33-5.97-5.6-.41-.11-.54.05-.84.25-.93.63-5.2,5.62-5.6,5.62-.69-1.03-3.08-2.61-3.56-3.54-.15-.28-.15-.3,0-.59.58-1.12,5.62-5.07,5.75-5.8l-5.86-6.2,3.41-3.63Z"/>
    </g>
  </g>
</svg>