<svg data-v-48262919="" class="first" version="1.1" xmlns="http://www.w3.org/2000/svg" xmlns:xlink="http://www.w3.org/1999/xlink" viewBox="0 0 1526 1580" role="presentation"><path data-v-48262919="" class="st0" d="M899.8,1029.6c-28.2,0-55.8-11.8-73.8-31.5c-14.7-16.1-23.4-36.4-31.9-56.1c-6.5-15.1-13.2-30.7-22.6-44.4c-25.1-36.6-66.8-56.7-107.1-76.2c-39.7-19.2-80.7-39-106.3-74.4c-19.6-27.2-27-63.5-20.3-99.7c6.7-36.2,26.7-67.5,54.8-85.9c7.9-5.2,23.8-13.8,41.2-13.8c6.7,0,13,1.3,18.7,3.9c6.3,2.8,11.8,7.2,17.2,11.5c4.7,3.7,9.6,7.6,15,10.4c7.1,3.6,14.6,5.4,22.9,5.4c19.4,0,39.7-9.8,59.3-19.2c7.5-3.6,15.3-7.4,22.8-10.4c16.9-6.9,35.2-10.6,53-10.6c20.1,0,39.3,4.6,55.6,13.3c34.1,18.2,53,54.3,50.5,96.6c-1.2,21.4-8,39.8-15.2,59.3c-2.4,6.6-5,13.4-7.2,20.4c-8.4,25.6-3.9,50.8,14.3,81.7c5.1,8.6,10.8,17.2,16.3,25.6c18.2,27.6,37.1,56.2,39.4,90.2c2.7,40.2-22.3,80.9-59.4,96.7C925.5,1027.1,913,1029.6,899.8,1029.6z M633.8,548.8c-17,0-32.7,8.6-40.5,13.6c-27.8,18.2-47.6,49.2-54.3,85.1c-6.6,35.8,0.7,71.8,20.1,98.8c25.4,35.2,66.3,54.9,105.8,74c40.5,19.5,82.3,39.8,107.6,76.6c9.4,13.7,16.2,29.4,22.7,44.6c8.4,19.6,17.1,39.8,31.7,55.8c17.8,19.5,45,31.2,72.9,31.2c13,0,25.4-2.5,36.8-7.3c36.7-15.6,61.3-55.8,58.6-95.5c-2.3-33.6-21-62.1-39.2-89.6c-5.5-8.4-11.2-17-16.3-25.6c-18.2-30.8-22.8-57.1-14.5-82.7c2.3-6.9,4.8-13.8,7.2-20.4c7.2-19.4,13.9-37.7,15.1-59c2.4-41.8-16.2-77.5-49.9-95.4c-16.2-8.6-35.2-13.2-55.1-13.2c-17.6,0-35.8,3.6-52.5,10.5c-7.5,3-15.2,6.8-22.7,10.4c-19.8,9.5-40.2,19.4-59.8,19.4c-8.5,0-16.2-1.8-23.5-5.5c-5.5-2.8-10.4-6.7-15.2-10.5c-5.3-4.2-10.7-8.5-16.9-11.3C646.5,550,640.3,548.8,633.8,548.8z" style="translate: none; rotate: none; scale: none; transform-origin: 0px 0px;" data-svg-origin="535.3861694335938 538.5999755859375" transform="matrix(1,0,0,1,0,0)"></path><path data-v-48262919="" class="st0" d="M912.5,1065.6c-6.2,0-12.4-0.4-18.4-1.1c-28.1-3.5-52.8-14.1-71.5-30.6c-22.1-19.6-35.8-46.9-49.1-73.3c-6.2-12.4-12.7-25.1-19.9-37c-4-6.5-8.4-13.2-13.1-19.8c-8.1-11.2-16.2-20.8-24.9-29.3c-12.9-12.7-29.4-25.2-51.9-39.3c-11.8-7.4-24.1-14.7-36-21.7c-7.7-4.6-15.7-9.3-23.5-14c-13.1-7.9-28.4-17.5-42.4-28.4c-14.7-11.4-26.4-23.1-35.8-35.7c-23.1-30.8-32.9-72.1-26.7-113.2c6.1-41.1,27.3-77.8,58.2-100.5c9.4-6.9,28.2-18.4,49.1-18.4c6,0,11.7,1,17.1,2.9c1.6,0.6,3.2,1.3,5,2.1c6.2,2.9,11.9,7,17.4,10.9c4.8,3.4,9.7,6.9,14.9,9.7c4.3,2.3,8.9,4.2,14.1,5.7c6.2,1.7,12.6,2.6,19.7,2.6c16.3,0,32.9-4.6,49-9c10.8-3,22-6.1,32.9-7.7c7.7-1.1,15.6-1.2,23.9-1.2c4.3,0,8.6,0,13.1-0.2c5.6-0.2,11.4-0.5,17-0.8l0.1,0c9.3-0.5,18.9-1,28.5-1c6.8,0,12.9,0.3,18.6,0.8c9.1,0.9,16,2.2,22.3,4.5c5.5,1.9,10.7,4.8,16.3,8c34.3,20.3,53.8,56.2,53.6,98.3c-0.2,21.9-5.7,41.1-11.6,61.4c-1.9,6.4-3.8,13.1-5.6,19.9c-8.3,31.4,3.3,60,15.7,83.9c4.3,8.2,8.8,16.6,13.1,24.8l0.1,0.2c12.4,23.3,25.2,47.3,36.2,71.7c6.4,14.2,13.2,31.2,15.7,49.6c1.6,10.8,1.3,21.3-0.7,31.3c-1.3,6-3.4,12.5-6.4,19.6c-8.1,18.5-19.7,34.8-33.7,47c-10.2,8.9-21.6,15.6-34,20.1c-7.7,2.8-16.1,4.7-25.6,5.9C926.3,1065.2,919.3,1065.6,912.5,1065.6zM606.6,504.4c-20.5,0-39.1,11.4-48.4,18.1c-30.7,22.5-51.8,58.9-57.8,99.7c-6.1,40.8,3.5,81.8,26.5,112.4c21,28.1,51.2,47.7,77.8,63.7c7.8,4.7,15.8,9.4,23.5,14c11.9,7,24.2,14.3,36,21.7c22.5,14.2,39.1,26.7,52.1,39.5c8.8,8.6,17,18.2,25.1,29.5c4.7,6.6,9.1,13.3,13.1,19.8c7.3,11.9,13.7,24.7,19.9,37.1c13.2,26.3,26.9,53.5,48.8,72.9c18.3,16.1,43.4,26.9,70.9,30.4c5.9,0.7,12,1.1,18.2,1.1c6.7,0,13.7-0.4,20.6-1.3c9.5-1.2,17.8-3.1,25.4-5.9c12.2-4.4,23.5-11.1,33.6-19.9c13.8-12.1,25.4-28.2,33.3-46.6c3-7.1,5.1-13.4,6.4-19.4c2-9.9,2.2-20.3,0.7-30.9c-2.5-18.3-9.3-35.1-15.7-49.2c-10.9-24.4-23.7-48.4-36.1-71.6c-4.4-8.2-8.9-16.7-13.3-25c-22.3-42.8-20.5-66.9-15.7-84.7c1.8-6.8,3.7-13.4,5.6-19.9c5.9-20.2,11.5-39.3,11.6-61.1c0.2-41.7-19.1-77.2-53-97.3c-5.6-3.2-10.6-6-16.1-7.9c-6.2-2.2-13-3.6-22.1-4.5c-5.6-0.5-11.7-0.8-18.5-0.8c-9.5,0-19.1,0.5-28.4,1c-5.6,0.3-11.4,0.6-17.1,0.8c-4.5,0.2-8.8,0.2-13.1,0.2c-8.3,0-16.1,0.1-23.8,1.2c-10.8,1.6-21.9,4.7-32.7,7.7c-16.2,4.5-32.9,9.1-49.3,9.1c-7.2,0-13.7-0.9-20-2.6c-5.2-1.5-9.9-3.4-14.3-5.7c-5.3-2.8-10.3-6.4-15-9.8c-5.5-3.9-11.2-7.9-17.2-10.8c-1.7-0.8-3.3-1.5-4.8-2.1C618.1,505.4,612.5,504.4,606.6,504.4z" style="translate: none; rotate: none; scale: none; transform-origin: 0px 0px;" data-svg-origin="497.4778747558594 503.3000183105469" transform="matrix(1,0,0,1,0,0)"></path><path data-v-48262919="" class="st0" d="M925.3,1104.5c-6.8,0-13.5-0.3-20-1c-33.3-3.2-62.9-14-85.6-31c-32.5-24.5-52.6-62-72-98.3c-3.8-7.1-7.7-14.5-11.7-21.6c-4.4-8-8.7-15.5-13.1-23.2c-6.7-11.6-14.1-23.9-23.2-35.7c-12.5-16.1-29.9-32.2-53-49.5c-20.8-15.7-44-30.8-64.4-44.1c-31.7-20.6-64.5-41.8-88.5-72.7c-26.6-34.3-38.7-80.4-33.2-126.3c5.5-46,28-87.8,61.8-114.8c18.8-14.8,39.1-23,57.2-23c5.4,0,10.6,0.7,15.4,2.1c2,0.5,4,1.3,5.7,1.9c7.9,3.1,15.3,7.9,22.4,12.6c4.6,3,9.4,6.2,14.4,8.9c5.1,2.8,10.4,5.1,15.5,6.9c8.3,2.9,17.5,4.3,28,4.3c10.9,0,21.9-1.5,32.6-2.9c10.4-1.4,21.2-2.8,31.8-2.8c6.9,0,12.9,0.6,18.6,1.9c12.8,2.9,26.9,4.7,44.4,5.7c3.4,0.2,6.9,0.3,10.7,0.3c10.5,0,21.3-0.7,31.7-1.5c10.5-0.7,21.3-1.5,31.8-1.5c1.6,0,3.1,0,4.7,0.1c11.5,0.2,20,1.5,27.8,4.1c7.3,2.5,13.9,6.7,19.8,10.5c34.2,21.8,54.9,58.1,56.8,99.7c1,23.1-3.5,43.4-8.4,65c-1.3,5.7-2.6,11.6-3.8,17.6c-5.8,29.1,2.6,55.3,17.1,85.7c11.6,24.4,23,49.8,34.1,74.4l0.2,0.4c6.4,14.2,13,28.9,19.6,43.3c8.4,18.5,17.1,37.6,21,58.5c2.5,13.5,2.7,26.1,0.4,37.3c-1.5,7-4.1,14.4-8.1,23.2c-10.5,22.8-24.4,41.5-41.2,55.6c-12.5,10.6-26.3,18.4-41.1,23c-9,2.8-18.3,4.6-30.3,5.7C942,1104.1,933.5,1104.5,925.3,1104.5z M579.8,464.5c-17.8,0-37.9,8.1-56.5,22.8c-33.5,26.8-55.9,68.3-61.4,114c-5.5,45.6,6.6,91.4,33,125.5c23.8,30.7,56.5,52,88.2,72.5c20.4,13.3,43.5,28.4,64.4,44.1c23.5,17.5,40.4,33.3,53.2,49.7c9.1,11.8,16.6,24.2,23.2,35.9c4.4,7.7,8.7,15.3,13.1,23.2c3.9,7.1,7.9,14.4,11.7,21.5c19.4,36.3,39.4,73.7,71.7,98c22.5,16.9,51.9,27.6,85,30.8c6.4,0.6,13,0.9,19.8,0.9c8.2,0,16.7-0.4,25.8-1.3c11.9-1.1,21.2-2.9,30.1-5.7c14.6-4.6,28.3-12.2,40.7-22.8c16.7-14,30.4-32.6,40.8-55.2c4-8.8,6.6-16.1,8.1-23c2.3-11.1,2.1-23.5-0.4-36.9c-3.9-20.8-12.6-39.9-21-58.3c-6.6-14.5-13.3-29.3-19.7-43.6l-0.1-0.1c-11-24.5-22.4-49.9-34-74.2c-5.4-11.4-12.1-26.6-15.9-42.3c-3.7-15.6-4.1-30.1-1.3-44.2c1.2-6,2.5-11.9,3.8-17.6c4.8-21.5,9.4-41.9,8.4-64.8c-1.9-41.1-22.3-77.1-56.2-98.7c-5.8-3.7-12.4-7.9-19.6-10.3c-7.6-2.6-16.1-3.8-27.4-4.1c-1.5,0-3.1-0.1-4.6-0.1c-10.6,0-21.3,0.7-31.8,1.5c-10.5,0.7-21.3,1.5-31.8,1.5c-3.9,0-7.4-0.1-10.8-0.3c-17.5-1-31.7-2.8-44.6-5.7c-5.6-1.2-11.6-1.9-18.4-1.9c-10.2,0-20.6,1.4-31.6,2.9c-10.7,1.4-21.8,2.9-32.7,2.9c-10.6,0-19.9-1.4-28.4-4.3c-5.2-1.8-10.5-4.1-15.7-6.9c-5-2.7-9.8-5.8-14.5-8.9c-7.4-4.8-14.4-9.4-22.2-12.5c-1.7-0.7-3.6-1.4-5.5-1.9C590.2,465.2,585.1,464.5,579.8,464.5z" style="translate: none; rotate: none; scale: none; transform-origin: 0px 0px;" data-svg-origin="459.298828125 463.300048828125" transform="matrix(1,0,0,1,0,0)"></path><path data-v-48262919="" class="st0" d="M936.1,1144.6c-7,0-13.6-0.2-19.8-0.7c-38.6-3-73.2-13.9-99.9-31.4c-44.6-29.3-72-78-98.3-129.5c-4.2-8.1-8.9-17.6-13.2-26.7c-1.1-2.2-2.1-4.5-3.2-6.7l-0.3-0.6c-5.7-12.1-11.1-23.6-18-34.8c-12-19.5-29.2-38.4-54.1-59.7c-18.9-16.2-41-32.9-69.5-52.6c-3-2.1-6.1-4.2-9.2-6.3l-0.7-0.5c-31.8-21.7-64.6-44.1-89-74.7c-30.2-37.9-44.7-88.9-39.8-139.7c4.8-50.7,28.7-97.9,65.4-129.3c21.2-18,44.4-28,65.4-28c4.8,0,9.4,0.5,13.8,1.5c2.1,0.5,4.2,1.1,6.4,1.8c10,3.4,19.3,9.1,28.3,14.6c4.3,2.6,8.6,5.3,13.1,7.8c5.9,3.2,11.5,5.9,16.9,8.1c24.4,9.7,49.5,10.5,73.9,11.2c15.4,0.5,31.2,0.9,46.3,3.8c7.1,1.3,14,3.4,21.3,5.6c9.8,2.9,19.9,6,30.8,7.2c5.8,0.7,11.9,1,18.7,1c13.5,0,27.3-1.3,40.6-2.6c11.4-1.1,23.3-2.3,34.7-2.6c1.9-0.1,3.5-0.1,5.2-0.1c11.1,0,20.3,1.3,28.1,3.9c8.4,2.8,15.9,7.8,23.2,12.6l0.3,0.2c34.7,23.2,56,59.2,60.1,101.2c2.2,23.7-1.1,45.1-4.6,67.6c-0.8,5.4-1.7,10.9-2.5,16.4c-4.5,31.7,6.6,60.8,18.4,87.8c8.8,20.1,17.1,40.9,25.2,61.1c10.3,25.9,21,52.6,33,78.4c0.9,1.9,1.7,3.7,2.6,5.6l0.4,0.8c9.1,19.4,18.5,39.5,23.3,61.1c3.6,16,4.1,30.6,1.4,43.4c-1.8,8.3-4.9,16.8-9.8,26.9c-13.1,26.8-29.4,48.4-48.7,64.2c-14.3,11.8-31,20.7-48.3,25.6c-12.4,3.6-24.6,4.8-34.9,5.6C960.3,1143.8,948.7,1144.6,936.1,1144.6z M552,424.7c-20.7,0-43.6,9.8-64.6,27.7c-36.5,31.2-60.2,78.1-65,128.5C417.6,631.4,432,682,462,719.7c24.3,30.4,57,52.8,88.7,74.4l0.4,0.3c3.2,2.2,6.3,4.3,9.4,6.5c28.5,19.7,50.6,36.4,69.6,52.6c24.9,21.3,42.2,40.3,54.3,59.9c6.9,11.3,12.3,22.8,18.1,34.9l0.1,0.2c1.1,2.3,2.2,4.7,3.4,7.1c4.2,9.1,9,18.6,13.2,26.7c26.3,51.4,53.5,99.9,97.9,129.1c26.5,17.4,60.9,28.2,99.3,31.2c6.2,0.5,12.8,0.7,19.7,0.7c12.6,0,24.2-0.7,32.9-1.4c10.2-0.8,22.4-2,34.7-5.6c17.2-4.9,33.8-13.7,47.9-25.4c19.1-15.7,35.4-37.2,48.3-63.8c4.9-10,8-18.5,9.8-26.7c2.7-12.6,2.2-27-1.4-42.8c-4.9-21.4-14.2-41.4-23.3-60.8c-1-2.1-2-4.3-3-6.5c-12-25.8-22.7-52.6-33-78.4c-8.1-20.2-16.4-41-25.2-61.1c-11.8-27.2-23-56.4-18.4-88.4c0.8-5.6,1.6-11.1,2.5-16.4c3.5-22.5,6.8-43.7,4.6-67.3c-4-41.7-25.2-77.4-59.5-100.4l-0.3-0.2c-7.2-4.8-14.7-9.7-22.9-12.5c-7.7-2.6-16.8-3.8-27.8-3.8c-1.6,0-3.3,0-5.1,0.1c-11.4,0.3-23.2,1.4-34.6,2.6c-13.4,1.3-27.2,2.7-40.7,2.7c-6.8,0-13-0.3-18.8-1c-11-1.3-21.2-4.3-31-7.3c-7.3-2.2-14.1-4.2-21.1-5.5c-15-2.8-30.1-3.3-46.1-3.7c-24.5-0.7-49.7-1.5-74.3-11.3c-5.5-2.2-11.1-4.9-17.1-8.1c-4.5-2.5-8.9-5.2-13.1-7.8c-9.4-5.7-18.2-11.2-28.1-14.5c-2.1-0.7-4.2-1.3-6.2-1.8C561.2,425.2,556.7,424.7,552,424.7z" style="translate: none; rotate: none; scale: none; transform-origin: 0px 0px;" data-svg-origin="420.1641540527344 423.4000244140625" transform="matrix(1,0,0,1,0,0)"></path><path data-v-48262919="" class="st0" d="M946.5,1184.6c-7.1,0-13.6-0.2-19.9-0.6c-44.8-2.9-83.1-13.6-113.9-31.8c-43.4-25.6-80.3-71.2-112.9-139.3c-5.6-11.7-9.8-21.3-13.2-30.1c-1.9-4.9-3.7-9.7-5.5-14.4c-4.4-11.8-8.6-23-14.1-34c-11.4-22.6-29.4-45.4-55.1-69.8c-20.8-19.9-45.2-39.9-74.3-60.9c-6.3-4.6-12.9-9.2-19.1-13.6c-31.9-22.5-64.9-45.8-90-76.6c-33.7-41.5-50.5-97.3-46.2-153c4.3-55.6,29.4-108.1,68.9-143.8c23.7-21.3,49.9-33,73.7-33c4.1,0,8.1,0.3,11.9,1c2.2,0.4,4.4,0.9,7,1.6c12.3,3.5,23.8,10.3,34.9,16.9c3.6,2.1,7.3,4.3,11,6.4c6.2,3.4,12.3,6.5,18.3,9.3c25.4,11.4,51.6,15.3,76.9,19.1c18.3,2.7,35.6,5.3,52.5,10.5c7,2.2,13.8,4.9,20.9,7.7c12.2,4.9,24.7,9.9,38.7,12.2c7.6,1.2,15.7,1.8,24.6,1.8c16.6,0,33.5-2.1,49.8-4.1c11.3-1.4,23-2.8,34.4-3.5c4.4-0.3,8.1-0.4,11.5-0.4c10.5,0,19.4,1.3,27.2,3.8c10.3,3.3,19.5,9.8,26.9,15.1c34.8,24.3,57.2,60.9,63.2,102.8c3.5,24.8,1.4,47.4-0.7,71.4c-0.4,4.7-0.9,9.4-1.3,14.1c-2.6,31.7,8.3,61.7,19.8,89.7c8.6,21.2,16.6,43.1,24.2,64.4c11.6,32,23.5,65.1,38.3,96.6c2.1,4.6,4.4,9.2,6.5,13.7c9.6,20,19.5,40.7,25.1,62.8c4.8,18.6,5.6,34.7,2.5,49.5c-2.4,11.6-7.4,22.5-11.6,30.6c-15.4,30.7-34.3,55.2-56.1,72.9c-17.1,13.5-35.9,23-55.8,28.2l0,0c-13.5,3.5-26.9,4.7-39.5,5.4C973.5,1183.9,960.1,1184.6,946.5,1184.6z M524.8,384.8c-23.5,0-49.4,11.6-72.9,32.7c-39.3,35.5-64.2,87.7-68.5,143c-4.3,55.4,12.5,110.9,46,152.2c25,30.6,57.9,53.9,89.6,76.3l0.1,0.1c6.3,4.4,12.8,9,19.1,13.6c29.2,21.1,53.6,41.1,74.5,61.1c25.8,24.5,43.9,47.5,55.3,70.2c5.5,11.1,9.7,22.3,14.1,34.1c1.8,4.7,3.6,9.6,5.5,14.5c3.4,8.8,7.6,18.4,13.2,30.1c32.5,67.9,69.3,113.3,112.5,138.7c30.6,18.1,68.8,28.7,113.3,31.6c6.2,0.4,12.8,0.6,19.8,0.6c13.5,0,27-0.7,39.5-1.5c14.5-0.9,26.7-2.1,39.3-5.4c19.8-5.2,38.4-14.6,55.4-28c21.7-17.6,40.4-42,55.7-72.5c4.1-8.1,9.1-18.9,11.4-30.4c3-14.5,2.2-30.5-2.5-48.9c-5.6-21.9-15.5-42.6-25.1-62.6c-2.1-4.5-4.3-9.1-6.5-13.7c-14.8-31.5-26.7-64.6-38.3-96.7c-7.7-21.2-15.6-43.2-24.2-64.4c-11.5-28.1-22.5-58.3-19.8-90.3c0.4-4.6,0.8-9.2,1.2-13.7l0-0.4c2.2-23.9,4.3-46.4,0.8-71.1c-5.9-41.6-28.2-77.8-62.7-102c-7.4-5.2-16.5-11.6-26.6-14.9c-7.7-2.5-16.5-3.8-26.8-3.8c-3.4,0-7.1,0.1-11.4,0.4c-11.3,0.7-23,2.2-34.3,3.5c-16.4,2-33.4,4.1-50,4.1c-9,0-17.1-0.6-24.8-1.8c-14.1-2.3-26.7-7.3-38.9-12.2c-7.1-2.9-13.9-5.6-20.8-7.7c-16.9-5.1-34.1-7.7-52.3-10.5c-25.4-3.8-51.7-7.7-77.2-19.2c-6-2.8-12.2-5.9-18.3-9.3c-3.7-2.1-7.4-4.3-11-6.4c-11.5-6.8-22.4-13.3-34.6-16.7c-2.6-0.7-4.8-1.2-6.9-1.6C532.7,385.1,528.8,384.8,524.8,384.8z" style="translate: none; rotate: none; scale: none; transform-origin: 0px 0px;" data-svg-origin="381.63824462890625 383.70001220703125" transform="matrix(1,0,0,1,0,0)"></path><path data-v-48262919="" class="st0" d="M957.2,1224.6c-6.9,0-13.3-0.1-19.4-0.5c-49.9-2.6-92.9-13.4-128-32.2c-65.7-35.2-105.6-100.3-127.5-148.7c-5.4-12-9.7-22.9-13.2-33.6c-2.4-7-4.4-14-6.4-20.8c-3.5-11.8-6.8-22.9-11.3-33.9c-10.7-25.7-29-51.9-56.1-80c-22.7-23.6-49.3-46.9-79.3-69.3c-8.9-6.7-18.1-13.3-27.1-19.8c-32.6-23.5-66.2-47.7-92.2-79c-37.2-45-56.4-105.6-52.7-166.1c3.8-60.5,30.2-118.2,72.5-158.1c26-24.6,55-38.1,81.6-38.1c3.5,0,7,0.2,10.4,0.7c2.8,0.4,5.2,0.8,7.7,1.5c15,3.6,28.8,11.7,42.2,19.5c2.7,1.5,5.3,3.1,8,4.6c6.7,3.9,13.3,7.4,19.7,10.4c26.2,12.8,53.1,19.6,79,26.2c20.8,5.3,40.4,10.2,59.5,18c7.1,2.9,14.2,6.3,21.2,9.6c14.4,6.9,29.2,14.1,45.9,17.3c9.2,1.8,18.9,2.7,29.7,2.7c19.4,0,39.2-2.8,58.4-5.6c11.7-1.7,23.8-3.4,35.6-4.5c4-0.4,10.2-0.8,16.6-0.8c10.5,0,19.5,1.3,27.6,3.9c11.2,3.6,21.2,10.6,30.5,17.4c34.7,25.1,58.2,62.1,66.3,104.3c5,26.3,4.2,50.7,3.4,76.6c-0.1,3.4-0.2,6.8-0.3,10.2c-0.9,31.4,9.5,61.3,21.1,91.6c8.7,22.7,16.5,46.3,24.1,69.1c12.5,37.6,25.4,76.5,42.7,113.1c3,6.2,6,12.5,9,18.6c10.5,21.4,21.4,43.4,27.9,66.8c5.8,20.9,7,39.1,3.6,55.5c-2.6,12.5-8.2,24.3-13.3,34.3c-17.7,34.4-39.1,61.8-63.5,81.4c-19.1,15-40.3,25.5-62.9,31c-14.7,3.6-29.3,4.5-44.1,5.2C988.7,1223.8,972.9,1224.6,957.2,1224.6z M498,345.7c-26.3,0-55,13.4-80.8,37.8c-42.1,39.7-68.4,97.1-72.1,157.3c-3.7,60.2,15.5,120.5,52.5,165.3c25.9,31.2,59.5,55.4,91.9,78.8c9,6.5,18.2,13.1,27.1,19.8c30,22.4,56.8,45.8,79.5,69.5c27.2,28.2,45.6,54.5,56.3,80.4c4.6,11.1,7.9,22.2,11.4,34c2,6.8,4.1,13.8,6.4,20.8c3.5,10.6,7.8,21.5,13.2,33.4c21.8,48.2,61.6,113.1,126.9,148.1c34.9,18.7,77.7,29.5,127.4,32c6.1,0.3,12.4,0.5,19.3,0.5c15.7,0,31.5-0.8,46.8-1.6c14.8-0.7,29.3-1.6,43.9-5.2c22.5-5.5,43.5-15.9,62.5-30.8c24.3-19.5,45.5-46.7,63.1-81c5.1-9.8,10.6-21.6,13.1-33.9c3.4-16.2,2.2-34.2-3.6-54.9c-6.5-23.3-17.3-45.2-27.8-66.5l-0.1-0.3c-3-6-6-12.3-8.9-18.4c-17.3-36.7-30.2-75.6-42.7-113.2c-7.6-22.8-15.4-46.3-24.1-69c-11.7-30.4-22-60.4-21.1-92c0.1-3.4,0.2-6.8,0.3-10.2c0.8-25.8,1.5-50.2-3.4-76.3c-8.1-41.8-31.4-78.6-65.9-103.5c-9.2-6.7-19.1-13.6-30.1-17.2c-7.9-2.6-16.8-3.8-27.2-3.8c-6.4,0-12.4,0.5-16.5,0.8c-11.8,1.1-23.8,2.8-35.5,4.5c-19.2,2.8-39.1,5.6-58.6,5.6c-10.9,0-20.7-0.9-29.9-2.7c-16.9-3.3-31.8-10.5-46.2-17.4c-7.2-3.5-14-6.7-21.1-9.6c-19-7.7-38.6-12.7-59.4-17.9c-26.1-6.6-53-13.4-79.3-26.3c-6.3-3-13-6.5-19.7-10.4c-2.7-1.5-5.3-3.1-8-4.6c-13.9-8.1-27.1-15.8-41.9-19.4c-2.4-0.7-4.8-1.1-7.6-1.5C504.9,345.9,501.5,345.7,498,345.7z" style="translate: none; rotate: none; scale: none; transform-origin: 0px 0px;" data-svg-origin="343.54901123046875 344.50006103515625" transform="matrix(1,0,0,1,0,0)"></path><path data-v-48262919="" class="st0" d="M966.5,1264.5c-6.4,0-12.2-0.1-17.8-0.3c-56.2-2.4-102.8-13.1-142.2-32.6c-59.8-29.7-111.6-87.4-142.1-158.5c-5.6-13.1-9.9-25.2-13.2-37.1c-2.4-8.5-4.4-17-6.3-25.2c-2.9-12.5-5.6-24.2-9.7-36.1c-10-28.9-28.7-58.5-57.2-90.3c-23.8-26.8-52.2-53-84.3-77.8c-11.3-8.8-23.1-17.3-34.4-25.6c-33.5-24.5-68.1-49.7-95.3-82c-40.8-48.8-62.4-114.2-59.2-179.6c3.1-65.3,30.9-128.3,76.1-172.8c14.3-14,30.1-25.3,45.6-32.6c15-7.1,29.8-10.7,43.9-10.7c3,0,6,0.2,8.9,0.5c3.1,0.3,5.7,0.7,8.4,1.3c17.8,3.7,34.1,13.2,49.9,22.3c1.6,0.9,3.2,1.9,4.9,2.8c7,4.1,14.1,8,21.1,11.6c26.8,14,54.1,23.4,80.5,32.5c23.5,8.1,45.8,15.7,67.3,26.3c6.8,3.3,13.6,7,20.1,10.6c17,9.3,34.5,18.9,54.5,23.4c10.6,2.4,21.9,3.5,34.5,3.5c22.3,0,45.1-3.6,67.1-7.2c12.2-2,24.9-4,37.2-5.3c8.4-0.9,14.8-1.3,21-1.3c10.8,0,20.2,1.3,28.5,4.1c12.3,3.9,23.1,11.6,34.1,19.7c35.2,26.4,59.2,63,69.5,105.8c6.7,28.1,7.4,54.6,8.1,82.7l0.1,5.6c0.8,31.1,10.6,60.9,22.5,93.7c8.8,24.4,16.6,49.6,24.1,74.1c13.4,43.2,27.2,87.9,47,129.7c4,8.4,8.2,16.9,12.4,25.1c11.1,22.2,22.6,45.1,29.9,69.3c6.9,23.2,8.5,43.4,4.7,61.6c-2.9,13.9-9.2,27-15,38c-20.6,39.1-43.8,68.5-71.1,90.1c-20.7,16.7-44.9,28.5-70,34.2c-16.2,3.7-31.7,4.5-48.8,5.1c-4.1,0.2-8.3,0.3-12.4,0.5C995.3,1264,980.9,1264.5,966.5,1264.5z M470.7,304.4c-20.6,0-52.7,7.5-89,43c-45,44.3-72.6,107-75.7,172c-3.1,65.1,18.4,130.3,59,178.8c27,32.2,61.6,57.4,95,81.8c11.4,8.3,23.1,16.9,34.5,25.7c32.2,24.9,60.6,51.2,84.5,78c28.6,31.9,47.3,61.6,57.4,90.7c4.1,11.9,6.9,23.7,9.7,36.2c1.9,8.2,3.9,16.7,6.3,25.1c3.3,11.8,7.6,23.9,13.2,36.9c30.4,70.8,82,128.4,141.5,157.9c39.3,19.4,85.7,30,141.8,32.4c5.6,0.2,11.4,0.3,17.8,0.3c14.4,0,28.8-0.6,42.7-1.2c4.2-0.2,8.3-0.3,12.5-0.5c17-0.6,32.5-1.4,48.6-5.1c24.9-5.7,49-17.4,69.6-34c27.1-21.5,50.3-50.8,70.7-89.7c5.7-10.9,11.9-23.9,14.8-37.6c3.7-18,2.2-38-4.7-61c-7.2-24.1-18.7-47-29.8-69.1c-4.1-8.2-8.3-16.6-12.4-25.1c-19.8-41.8-33.6-86.6-47-129.9c-7.5-24.4-15.3-49.6-24.1-74c-11.9-33-21.8-62.8-22.5-94.1l-0.1-5.6c-0.7-28-1.4-54.5-8-82.4c-10.2-42.6-34.1-79-69.1-105.2c-11.3-8.4-21.6-15.6-33.7-19.5c-8.2-2.7-17.4-4-28.1-4c-6.2,0-12.6,0.4-20.9,1.3c-12.3,1.4-24.9,3.4-37.1,5.3c-22.1,3.5-45,7.2-67.3,7.2c-12.7,0-24.1-1.2-34.8-3.5c-20.2-4.5-37.8-14.2-54.8-23.5c-6.6-3.6-13.4-7.3-20.1-10.6c-21.5-10.5-43.7-18.2-67.2-26.3c-26.4-9.1-53.8-18.5-80.6-32.5c-7-3.6-14.1-7.5-21.1-11.6c-1.5-0.9-4.9-2.8-4.9-2.8c-16.4-9.5-31.9-18.4-49.6-22.1c-2.6-0.6-5.2-1-8.2-1.3C476.4,304.6,473.5,304.4,470.7,304.4z" style="translate: none; rotate: none; scale: none; transform-origin: 0px 0px;" data-svg-origin="304.4888000488281 303.3000183105469" transform="matrix(1,0,0,1,0,0)"></path><path data-v-48262919="" class="st0" d="M975.4,1304.6c-5.9,0-11.4-0.1-16.6-0.3c-61.7-2.2-112.8-13-156.2-33c-34.5-15.9-66-39.3-93.7-69.4c-26.4-28.7-48.1-62.8-62.9-98.7c-5.5-13.2-9.9-26.8-13.2-40.5c-2.4-9.8-4.2-19.7-5.9-29.3c-2.3-12.6-4.7-25.7-8.3-38.3c-9.3-32.1-28.3-64.9-58.2-100.5c-25.1-30.1-55.1-59.1-89.2-86.3c-13.5-10.7-27.6-21.1-41.2-31.1c-34.6-25.5-70.4-51.9-98.7-85.2c-44.3-52.4-68.3-122.7-65.7-192.8c2.6-70.2,31.6-138.5,79.6-187.2c15-15.3,31.7-27.7,48.3-36c16.7-8.4,33.3-12.6,49.2-12.6c2.4,0,4.9,0.1,7.3,0.3c3,0.2,6.1,0.6,9.1,1.2c20.8,3.7,39.8,14.7,58.2,25.4l4.3,2.5c6.6,3.9,12.9,7.5,19.2,10.9c26.9,15,54.4,26.6,80.9,37.8c26.6,11.3,51.7,21.9,76,35.6c6.4,3.6,12.9,7.6,19.2,11.4c19.5,11.8,39.7,24.1,62.9,29.8c12,2.9,24.8,4.4,39.1,4.4c25,0,50.7-4.5,75.5-8.8c12.8-2.2,26.1-4.5,39-6.2c6.8-0.9,15.8-1.8,25.2-1.8c11.2,0,20.9,1.4,29.7,4.2c14.1,4.5,26.3,13.4,37.6,22.1c35.2,27.1,60.3,64.2,72.6,107.4c8.8,31.3,11.2,62.4,13.2,89.8c2.5,32.4,12.8,62.9,23.6,95.3l0.1,0.4c8.8,25.8,16.5,52.4,24,78.2c14.3,49.1,29,99.8,51.4,146.9c4.8,10.1,10,20.2,15,30c12,23.5,24.4,47.7,32.4,73.4c8,25.6,9.9,47.7,5.7,67.6c-3.2,15-9.9,28.9-16.7,41.7c-23,43-48.7,75.3-78.5,98.7c-22.8,17.9-49.4,30.5-76.8,36.4c-18,3.9-35.2,4.4-53.4,4.9c-6.4,0.2-12.9,0.4-19.2,0.7C1005,1304,990.2,1304.6,975.4,1304.6z M442.9,264.7c-22.6,0-57.7,8.4-97,48.2c-47.7,48.5-76.6,116.5-79.2,186.4c-2.5,69.8,21.3,139.8,65.5,192c28.2,33.2,63.9,59.6,98.5,85.1c13.6,10.1,27.7,20.5,41.2,31.2c34.2,27.3,64.2,56.4,89.4,86.5c29.9,35.7,49.1,68.7,58.4,100.9c3.7,12.7,6,25.7,8.3,38.4c1.7,9.6,3.5,19.4,5.9,29.2c3.3,13.6,7.7,27.2,13.2,40.3c14.7,35.7,36.4,69.7,62.7,98.3c27.2,29.6,59.4,53.5,93.3,69.1c43.3,19.9,94.2,30.7,155.8,32.8c5.3,0.2,10.7,0.3,16.6,0.3c14.8,0,29.6-0.6,44-1.1c6.3-0.2,12.8-0.5,19.2-0.7c18.2-0.5,35.3-1,53.2-4.9l0,0l0,0c27.2-5.9,53.6-18.4,76.3-36.2c29.7-23.3,55.2-55.5,78.1-98.3c6.7-12.7,13.4-26.5,16.5-41.3c4.1-19.7,2.3-41.6-5.7-67c-8-25.6-20.4-49.8-32.4-73.2l0-0.1c-5-9.8-10.2-19.9-15-30c-22.4-47.2-37.2-98-51.5-147.1c-7.5-25.8-15.2-52.4-24-78.2l-0.1-0.4c-10.4-31-21.2-63-23.7-95.6c-2.1-27.4-4.4-58.4-13.2-89.6c-12.3-43-37.2-79.9-72.2-106.8c-11.2-8.7-23.3-17.5-37.2-21.9c-8.7-2.8-18.3-4.1-29.4-4.1c-9.4,0-18.3,1-25.1,1.8c-12.9,1.6-26.1,4-38.9,6.2c-24.9,4.3-50.6,8.8-75.7,8.8c-14.4,0-27.3-1.4-39.4-4.4c-23.4-5.8-43.7-18-63.2-29.9c-6.3-3.8-12.8-7.7-19.2-11.4c-24.2-13.6-49.3-24.2-75.9-35.5c-26.6-11.2-54-22.9-81-37.9c-6.3-3.4-12.8-7.2-19.2-10.9l-4.4-2.5c-18.3-10.6-37.2-21.5-57.8-25.2c-3-0.6-6-1-8.9-1.2C447.6,264.8,445.3,264.7,442.9,264.7z" style="translate: none; rotate: none; scale: none; transform-origin: 0px 0px;" data-svg-origin="265.4085693359375 263.3999328613281" transform="matrix(1,0,0,1,0,0)"></path><path data-v-48262919="" class="st0" d="M984.4,1344.6c-5.2,0-10-0.1-14.6-0.2c-67.4-2-123.1-12.9-170.4-33.3c-76.3-33.1-140.3-99.5-171.2-177.6c-5.7-14.2-10.1-29-13.2-44c-2.3-11.2-3.9-22.6-5.4-33.6c-1.8-13.3-3.7-27.1-7-40.4c-8.6-35.1-27.9-71.2-59.3-110.6c-26.7-33.7-58.4-65.6-94.2-94.7c-15.6-12.7-32-24.8-47.8-36.6c-35.8-26.6-72.8-54.1-102.3-88.6c-47.9-55.9-74.3-131.1-72.2-206.1c2-75,32.3-148.5,83.2-201.6c15.8-16.5,33.5-30.1,51.1-39.3c18.6-9.7,37.1-14.6,54.9-14.6c1.8,0,3.6,0,5.3,0.1c3.6,0.2,6.7,0.5,9.8,1c22.4,3.5,42.9,14.7,63.7,26.9c3.8,2.2,7.5,4.4,11.2,6.6l0.1,0.1c4.1,2.4,8.4,5,12.5,7.3c26.2,15.2,52.7,28.3,78.3,40.9c30.7,15.2,59.8,29.5,87.9,47.1c5.9,3.7,11.9,7.6,17.7,11.4c22.3,14.6,45.3,29.7,72,36.7c13.4,3.5,27.6,5.2,43.6,5.2c27.9,0,56.4-5.3,84-10.4c13.5-2.5,27.5-5.1,41.1-7c8-1.1,18.5-2.4,29.5-2.4c11.6,0,21.8,1.4,31,4.3c15.9,5,29.6,15.2,41.2,24.4c35.2,27.8,61.4,65.5,75.8,108.9c10.1,30.5,14.4,60.5,18.3,91.2c4.1,31.8,14.2,63.6,24.1,94.3l1.1,3.3c8.7,27,16.3,54.8,23.8,81.7c15.2,55.1,30.9,112.1,56,164.7c5.6,11.7,11.7,23.4,17.6,34.7c13,24.8,26.3,50.5,35.2,77.6c9.1,27.9,11.3,52,6.8,73.6c-3.4,16.4-10.8,31.4-18.4,45.3c-25.4,47-53.5,82.1-86,107.3c-25.4,19.8-54.7,33.5-84.7,39.6c-18.6,3.8-36.4,4.3-55.3,4.7l-2.7,0.1c-9.4,0.2-18.9,0.5-28,0.9C1014,1344.1,999.2,1344.6,984.4,1344.6z M416.1,224.6c-47.1,0-86.3,33.6-105.5,53.6C260,331,229.8,404.2,227.8,478.9c-2,74.8,24.2,149.6,72,205.3c29.4,34.4,66.4,61.8,102.1,88.4c15.9,11.8,32.3,24,47.9,36.6c35.9,29.2,67.6,61.1,94.4,94.9c31.5,39.5,50.9,75.8,59.5,111c3.3,13.4,5.2,27.2,7,40.5c1.5,11,3.1,22.3,5.4,33.5c3.1,14.9,7.5,29.7,13.2,43.8c30.8,77.8,94.6,144,170.6,177c47.1,20.4,102.7,31.3,170,33.2c4.7,0.1,9.5,0.2,14.6,0.2c14.7,0,29.5-0.5,43.8-1c9.2-0.3,18.7-0.7,28.1-0.9l2.7-0.1c18.8-0.5,36.6-0.9,55.1-4.7c29.9-6.1,59-19.7,84.3-39.4c32.3-25.1,60.3-60.1,85.6-106.9c7.5-13.7,14.9-28.7,18.2-44.9c4.5-21.4,2.3-45.3-6.8-73c-8.8-27.1-22.2-52.6-35.1-77.4c-5.9-11.4-12.1-23.1-17.7-34.8c-25.1-52.7-40.9-109.7-56.1-164.9c-7.4-26.9-15.1-54.8-23.7-81.7l-1.1-3.3c-9.9-30.8-20.1-62.6-24.2-94.5c-3.9-30.6-8.3-60.6-18.3-91c-14.3-43.2-40.4-80.6-75.4-108.3c-11.5-9.1-25.1-19.3-40.8-24.2c-9.1-2.9-19.1-4.3-30.7-4.3c-10.9,0-21.4,1.3-29.3,2.4c-13.6,1.9-27.5,4.5-41,7c-27.7,5.1-56.3,10.4-84.2,10.4c-16,0-30.4-1.7-43.9-5.2c-26.9-7.1-50-22.2-72.4-36.9c-5.8-3.8-11.8-7.7-17.7-11.4c-28.1-17.5-57.1-31.9-87.8-47c-25.7-12.7-52.2-25.7-78.4-41c-4.3-2.5-8.7-5.1-12.7-7.4l-0.3-0.2c-3.6-2.1-7.3-4.3-10.9-6.4c-21.5-12.6-41.1-23.3-63.3-26.7c-3-0.5-6.1-0.8-9.6-1C419.4,224.6,417.8,224.6,416.1,224.6z" style="translate: none; rotate: none; scale: none; transform-origin: 0px 0px;" data-svg-origin="226.6836395263672 223.40003967285156" transform="matrix(1,0,0,1,0,0)"></path><path data-v-48262919="" class="st0" d="M994.1,1384.5c-4.5,0-8.9,0-13.1-0.1c-72.5-1.6-132.9-12.6-184.5-33.7c-41.1-16.8-79.8-42.8-112.1-75.2c-32.7-32.8-58.1-71.5-73.5-112c-6.1-15.8-10.5-31.8-13.2-47.4c-2.2-12.5-3.5-25.1-4.7-37.3c-1.4-14.2-2.9-28.8-5.9-43c-8-38.3-27.7-77.8-60.3-120.8c-28.2-37.3-61.6-71.9-99.1-103.1c-17.5-14.5-36.2-28.4-54.2-41.9c-37.1-27.7-75.5-56.4-106.3-92c-51.5-59.6-80.2-139.6-78.6-219.3c1.5-79.8,33.1-158.6,86.7-216c16.6-17.8,35.2-32.6,53.8-42.6c20.3-11,40.6-16.6,60.2-16.6c1.2,0,2.5,0,3.7,0.1c3.5,0.1,7,0.4,10.4,0.9c25.2,3.4,48.4,16.1,68.2,27.8c6.4,3.8,12.8,7.6,18.9,11.3l6.4,3.9c24.3,14.7,48.8,28.3,72.5,41.5c36,19.9,69.9,38.8,102.8,61c5.3,3.6,10.7,7.4,15.9,11c25.1,17.6,51,35.8,81.4,44.2c14.7,4.1,30.4,6,48,6c30.6,0,62-6.1,92.4-12c14.2-2.8,28.8-5.6,43.1-7.8c9.1-1.4,21.1-3,33.5-3c12.1,0,22.7,1.5,32.4,4.5c17,5.3,31.5,16,44.7,26.7c35.1,28.5,62.4,66.6,79,110.4c11.8,31.5,18.2,63.1,23.4,92.6c5.4,30.7,14.9,61.8,24.1,91.7l2.4,7.8c8.4,27.8,15.9,56.4,23.2,84.1l0,0.1c16.1,61.5,32.8,125.2,60.8,183.6c6.4,13.4,13.5,26.9,20.4,39.8c13.8,26.1,28.1,53,37.6,81.4c10.2,30.3,12.8,56.3,7.9,79.6c-3.6,17.5-11.8,33.9-20.1,49c-27.8,50.8-58.3,88.7-93.4,115.8c-27.5,21.3-59.3,36-91.9,42.4c-20.1,4-39.4,4.3-59.8,4.6l-2.8,0c-11.3,0.2-22.7,0.6-33.8,1l-0.1,0C1025.3,1384,1009.7,1384.5,994.1,1384.5z M389.5,184.6c-50.9,0-92.9,36.9-113.4,58.9c-53.4,57.2-84.8,135.7-86.3,215.2c-1.5,79.5,27.1,159.1,78.4,218.5c30.7,35.5,69.1,64.1,106.1,91.8c18,13.5,36.7,27.4,54.2,41.9c37.6,31.2,71,66,99.3,103.3c32.7,43.1,52.5,82.7,60.5,121.2c3,14.3,4.5,28.9,5.9,43.1c1.2,12.2,2.5,24.8,4.7,37.2c2.7,15.6,7.1,31.4,13.2,47.2c15.4,40.4,40.7,79,73.3,111.6c32.2,32.3,70.8,58.2,111.7,74.9c51.5,21,111.7,32,184.1,33.7c4.2,0.1,8.6,0.1,13.1,0.1c15.5,0,31.2-0.5,46.3-1.1l0.3,0c11.1-0.4,22.5-0.8,33.7-1l2.8,0c20.4-0.3,39.6-0.5,59.6-4.6c32.4-6.4,64-21,91.4-42.2c34.9-27,65.3-64.8,93-115.4c8.2-15,16.3-31.3,19.9-48.6c4.8-23.1,2.3-48.9-7.9-79c-9.5-28.3-23.8-55.2-37.5-81.2c-6.9-13-14-26.4-20.4-39.9c-28.1-58.5-44.8-122.2-60.9-183.8c-7.3-27.7-14.8-56.4-23.2-84.2l-2.4-7.8c-9.2-30-18.7-61.1-24.1-91.9c-5.2-29.5-11.6-61-23.4-92.4c-16.5-43.5-43.6-81.5-78.6-109.8c-13.1-10.6-27.5-21.2-44.3-26.5c-9.5-3-20-4.4-32-4.4c-12.3,0-24.3,1.6-33.3,2.9c-14.3,2.2-28.9,5-43.1,7.8c-30.4,5.9-61.9,12.1-92.6,12.1c-17.7,0-33.5-2-48.3-6.1c-30.6-8.5-56.6-26.7-81.7-44.3c-5.2-3.6-10.6-7.4-15.9-11c-32.8-22.3-66.8-41.1-102.7-61c-23.8-13.2-48.3-26.8-72.6-41.5l-6.1-3.7c-6.2-3.7-12.6-7.6-19.2-11.5c-19.7-11.6-42.8-24.2-67.8-27.6c-3.4-0.5-6.8-0.8-10.2-0.9C391.8,184.7,390.7,184.6,389.5,184.6z" style="translate: none; rotate: none; scale: none; transform-origin: 0px 0px;" data-svg-origin="188.5364532470703 183.50006103515625" transform="matrix(1,0,0,1,0,0)"></path><path data-v-48262919="" class="st0" d="M1002.5,1425.6c-3.6,0-7.2,0-10.6-0.1c-78.4-1.4-143.4-12.6-198.7-34.2c-44.6-17.4-86.6-44.4-121.4-78.2c-35.8-34.7-63.1-75.8-79-118.8c-6.2-16.8-10.7-33.9-13.2-50.9c-2.1-13.6-3-27.4-3.9-40.7c-1.1-15.2-2.1-30.8-4.9-46.1c-7.4-41.5-27.4-84.4-61.3-131.1C480.1,885,445.1,847.4,405.4,814c-19.3-16.2-39.8-31.6-59.7-46.5c-38.7-29-78.8-59-111.1-96.1c-55.1-63.3-86.2-148.1-85.1-232.7c0.9-84.6,33.8-168.6,90.2-230.6c17.5-19.1,37-35,56.5-46c22.2-12.4,44.3-18.7,65.8-18.7c0.6,0,1.3,0,1.9,0c4.1,0.1,7.6,0.3,11.1,0.7c26.8,3.1,50.7,15.6,72.6,28.7c7.4,4.4,14.7,8.9,21.8,13.3l4.9,3.1c19.2,12.1,38.7,23.9,57.4,35.2l0.2,0.1c44.4,26.9,86.3,52.4,126.9,81.9c4.6,3.4,9.3,6.8,13.8,10.2c28,20.8,56.8,42.2,91,52.1c16.1,4.7,33.2,6.9,52.4,6.9c33.4,0,67.6-7,100.6-13.7c15-3.1,30.5-6.2,45.5-8.6c10.1-1.6,23.6-3.5,37.3-3.5c12.7,0,23.8,1.6,33.9,4.7c18.7,5.8,34.9,17.9,48.3,29c35.6,29.5,63.3,67.2,82.2,112c13.9,32.9,22.2,66,28.5,94.1c6.1,27.1,14.2,54.7,22,81.3l0,0.1c2,6.7,3.9,13.4,5.9,20.2c8.3,28.6,15.7,58.1,22.8,86.7c17.1,68.1,34.7,138.4,65.6,202.7c7.2,14.9,15.1,29.7,22.8,44.1l0.1,0.1c14.8,27.6,30.1,56.1,40.5,86.2c11.3,32.6,14.2,60.6,8.9,85.7c-4,18.9-12.8,36.5-21.8,52.7c-30.5,55-63.4,95.8-100.9,124.5c-29.4,22.8-63.6,38.4-99,45.1c-21.3,4-41.6,4.2-63.1,4.4l-4.2,0c-13.9,0.1-28,0.6-41.6,1.1C1034.8,1425,1018.6,1425.6,1002.5,1425.6z M362.2,144.6c-54.8,0-99.7,40.3-121.6,64.3c-56.2,61.8-88.9,145.5-89.8,229.8c-1,84.3,29.9,168.9,84.9,231.9c32.2,37,72.2,67,110.9,95.9c19.9,14.9,40.5,30.3,59.8,46.5c39.7,33.5,74.8,71.1,104.3,111.8c34,46.8,54.1,89.8,61.5,131.5c2.7,15.3,3.8,31,4.9,46.2c0.9,13.3,1.9,27.1,3.9,40.6c2.5,16.9,7,34,13.2,50.7c15.8,42.8,43,83.8,78.7,118.3c34.7,33.6,76.5,60.6,121,77.9c55.1,21.6,120,32.8,198.3,34.2c3.4,0.1,6.9,0.1,10.6,0.1c16,0,32.2-0.6,47.8-1.2l0.1,0c13.6-0.5,27.7-1,41.6-1.1l4.2,0c21.4-0.2,41.7-0.3,62.8-4.4c35.2-6.7,69.2-22.2,98.4-44.9c37.3-28.6,70.2-69.2,100.5-124.1c8.9-16.1,17.7-33.5,21.6-52.3c5.3-24.9,2.3-52.7-8.9-85.1c-10.4-30.1-25.6-58.5-40.4-86c-7.7-14.4-15.7-29.3-22.9-44.2c-30.9-64.3-48.5-134.7-65.6-202.8c-7.2-28.6-14.6-58-22.8-86.7c-1.9-6.7-3.9-13.4-5.9-20.1l0-0.2c-7.8-26.7-15.9-54.2-22-81.4c-6.3-28-14.6-61.1-28.5-93.9c-18.8-44.6-46.4-82.2-81.8-111.6c-13.3-11-29.4-23-47.9-28.8c-10-3.2-21-4.7-33.6-4.7c-13.7,0-27,1.9-37.1,3.5c-15.1,2.4-30.5,5.6-45.5,8.6c-33.1,6.7-67.4,13.7-100.9,13.7c-19.3,0-36.5-2.3-52.7-7C729,360,700,338.4,672,317.6c-4.5-3.4-9.2-6.8-13.9-10.2c-40.5-29.5-82.4-54.9-126.8-81.8c-18.8-11.4-38.3-23.2-57.7-35.4l-4.9-3.1c-7.1-4.4-14.4-9-21.8-13.3c-21.8-13-45.6-25.4-72.2-28.5c-3.4-0.4-6.8-0.6-10.9-0.7C363.3,144.6,362.8,144.6,362.2,144.6z" style="translate: none; rotate: none; scale: none; transform-origin: 0px 0px;" data-svg-origin="149.47174072265625 143.40000915527344" transform="matrix(1,0,0,1,0,0)"></path><path data-v-48262919="" class="st0" d="M1011.9,1465.7c-3,0-6,0-9-0.1c-83.9-1.2-153.6-12.5-212.9-34.5c-48.1-17.9-93.3-46-130.6-81.1c-38.9-36.6-68-79.9-84.3-125.3c-6.4-17.9-10.9-36.2-13.2-54.3c-1.9-14.8-2.6-29.8-3.2-44.3c-0.7-16-1.4-32.6-3.9-48.7c-6.6-44.5-27-90.7-62.4-141.2c-30.9-44.1-67.6-84.5-109.1-120c-21.3-18.2-44.2-35.4-66.4-52.1c-40-30-81.3-61.1-114.8-99.3c-58.6-66.8-92-156.4-91.7-245.9c0.4-89.4,34.6-178.7,93.8-245c54.7-61.2,105.5-70.3,130.9-70.3c3.9,0,7.9,0.2,11.8,0.6c29.1,2.9,55.4,16.6,77.1,29.6c8.9,5.3,17.7,10.9,26.2,16.4l1.9,1.2c8.6,5.6,17.1,11.1,25.7,16.6c58.9,38,114.6,73.9,168.2,115.1c4,3.1,8.1,6.3,12.1,9.4c30.7,23.9,62.4,48.6,100.3,60c17.4,5.2,36,7.8,56.8,7.8c36.1,0,73.2-7.8,109-15.4c15.7-3.3,31.9-6.7,47.8-9.4c11.3-1.9,26.1-4.1,41.3-4.1c13.2,0,24.8,1.6,35.4,4.9c20.3,6.3,37.7,19.4,51.9,31.3c35.5,30,64.2,68.2,85.4,113.5c12.8,27.5,23.4,57.8,33.6,95.5c4.9,18.1,10.2,36.6,15.4,54.5l0.1,0.2c4.6,15.9,9.3,32.4,13.8,48.8c8,29.2,15.3,59.3,22.3,88.3c18,74.7,36.6,152,70.5,222.3c8,16.7,17,33.2,25.7,49.2c15.7,28.8,31.8,58.6,42.9,90.1c12.4,34.9,15.7,64.9,10,91.7c-4.2,20.1-13.8,39-23.5,56.4c-32.8,58.8-68.3,102.4-108.4,133.1c-31.9,24.4-68.7,41-106.4,47.9c-21.6,4-42.2,4.1-64,4.3c-2.7,0-5.3,0-7.9,0.1c-15.6,0.1-31.5,0.7-46.9,1.2C1046.3,1465,1029,1465.7,1011.9,1465.7z M335,104.6c-25.2,0-75.6,9.1-130.1,69.9c-59,66-93,155-93.4,244.2c-0.3,89.2,33,178.6,91.5,245.1c33.4,38.1,74.7,69.1,114.6,99.1c22.2,16.7,45.1,33.9,66.4,52.1c41.6,35.5,78.3,76,109.3,120.2c35.5,50.7,56,97.1,62.6,141.8c2.5,16.2,3.2,32.8,3.9,48.8c0.6,14.5,1.3,29.5,3.2,44.3c2.3,18.1,6.8,36.3,13.2,54.1c16.2,45.2,45.3,88.4,84,124.9c37.2,35,82.2,63,130.2,80.9c59.2,22,128.7,33.3,212.5,34.5c3,0,6,0.1,9,0.1c17.1,0,34.4-0.6,51.1-1.2c15.4-0.6,31.3-1.1,47-1.2c2.6,0,5.2,0,7.8-0.1c21.8-0.1,42.4-0.2,63.9-4.2c37.5-6.9,74.1-23.4,105.8-47.7c40-30.6,75.3-74,108-132.7c9.6-17.3,19.1-36.1,23.3-56c5.6-26.6,2.3-56.4-10-91.1c-11-31.3-27.2-61.1-42.8-89.9c-8.7-16-17.7-32.6-25.7-49.3c-33.9-70.3-52.6-147.7-70.6-222.5c-7-29.1-14.2-59.1-22.3-88.3c-4.5-16.3-9.2-32.8-13.8-48.8c-5.2-18-10.5-36.6-15.4-54.7c-10.2-37.6-20.8-67.9-33.6-95.3c-21.1-45.2-49.7-83.2-85-113.1c-14.2-11.9-31.3-24.9-51.5-31.1c-10.5-3.3-21.9-4.9-35-4.9c-15.1,0-29.9,2.2-41.1,4.1c-15.8,2.7-32,6.1-47.7,9.4c-35.9,7.6-73,15.4-109.3,15.4c-20.9,0-39.6-2.6-57.1-7.8c-38-11.4-69.9-36.2-100.6-60.2c-4.1-3.2-8.1-6.3-12.1-9.4c-53.6-41.2-109.2-77.1-168.1-115.1c-8.5-5.5-17.1-11-25.7-16.6l-2-1.3c-8.5-5.4-17.2-11-26.1-16.3c-21.7-13-47.7-26.6-76.7-29.4C342.8,104.8,338.9,104.6,335,104.6z" style="translate: none; rotate: none; scale: none; transform-origin: 0px 0px;" data-svg-origin="110.39798736572266 103.59992980957031" transform="matrix(1,0,0,1,0,0)"></path><path data-v-48262919="" class="st0" d="M1020.5,1505.6c-2.4,0-4.8,0-7.3,0c-88.9-0.8-163.1-12.2-226.9-34.9c-51.7-18.6-100-47.7-139.8-84.1c-41.9-38.4-72.9-84-89.6-131.9c-6.6-18.8-11.1-38.3-13.2-57.8c-1.8-15.9-2.1-32.2-2.4-47.9c-0.3-16.9-0.7-34.4-2.9-51.5c-6-47.8-26.8-97.3-63.4-151.3c-32.1-47.4-70.5-90.6-114.1-128.5c-23.1-20.1-48.1-38.9-72.2-57.1c-41.4-31.2-84.2-63.5-119.1-103c-62.2-70.4-98-164.9-98.2-259.1c-0.1-94.3,35.3-188.8,97.2-259.4c57-64.8,110.4-75.2,137.1-75.6c0.7,0,1.4,0,2.2,0c2.9,0,6.2,0.1,10.2,0.4c32,2.7,60.4,17.7,81.6,30.5c10.2,6.1,20.2,12.7,29.5,18.8c61.4,40.9,133.6,90.3,202.9,146.3c2.9,2.3,5.7,4.6,8.6,7l0.5,0.4c33.9,27.5,68.9,56,110.9,69c18.7,5.8,38.7,8.6,61.1,8.6c38.8,0,78.6-8.6,117-17c16.5-3.6,33.5-7.3,50.2-10.2c12.3-2.2,28.5-4.7,45.1-4.7c13.8,0,25.9,1.7,37,5.1c22.6,7,41.5,21.6,55.4,33.6c35.4,30.5,65.2,69.2,88.4,115c14.4,28.2,27,59.9,38.6,96.9c12.7,40.6,22.4,74.1,30.6,105.4c7.7,29.4,14.6,59.4,21.4,88.5c19,81.9,38.6,166.6,75.7,243.5c8.8,18.2,18.7,36.3,28.3,53.8c16.6,30.2,33.7,61.5,45.6,94.4c13.4,37.3,17.1,69.3,11.1,97.7c-4.6,21.8-14.8,41.7-25.2,60c-35.4,62.9-73.2,109.2-115.8,141.6c-33.9,26-73.1,43.6-113.4,50.8c-21.4,3.8-41.9,4.1-62.8,4.1c-2.2,0-11.4,0-13.7,0c-17.4,0-35.1,0.7-52.2,1.3C1057,1505,1038.6,1505.6,1020.5,1505.6z M308,64.7c-0.7,0-1.5,0-2.2,0c-26.6,0.4-79.6,10.7-136.3,75.2c-61.7,70.4-97.1,164.6-97,258.6c0.2,93.9,35.9,188.1,97.8,258.3c34.8,39.4,77.6,71.6,118.9,102.8c24.1,18.2,49.1,37,72.3,57.1c43.7,38,82.1,81.3,114.3,128.7c36.7,54.2,57.5,103.9,63.6,151.9c2.2,17.1,2.5,34.6,2.9,51.6c0.3,15.7,0.6,31.9,2.4,47.8c2.1,19.4,6.6,38.8,13.2,57.6c16.7,47.7,47.5,93.1,89.3,131.4c39.6,36.3,87.8,65.3,139.3,83.9c63.7,22.7,137.7,34.1,226.5,34.9c2.4,0,4.8,0,7.2,0c18.2,0,36.6-0.7,54.3-1.3c17.1-0.6,34.8-1.3,52.2-1.3c2.2,0,11.6,0,13.9,0c20.8,0,41.1-0.3,62.4-4.1c40.1-7.2,79.1-24.7,112.8-50.6c42.4-32.2,80.2-78.4,115.4-141.2c10.3-18.2,20.4-38,25-59.6c5.9-28.2,2.3-59.9-11.1-97.1c-11.9-32.8-29-64-45.5-94.1c-9.6-17.5-19.6-35.7-28.4-53.9c-37.1-76.9-56.8-161.7-75.8-243.7c-6.7-29.1-13.7-59.2-21.4-88.5c-8.1-31.3-17.9-64.8-30.6-105.4c-11.6-37-24.2-68.6-38.6-96.7c-23.2-45.7-52.9-84.3-88.2-114.6c-13.9-11.9-32.6-26.5-55-33.4c-11-3.4-23-5-36.6-5c-16.5,0-32.6,2.5-44.9,4.7c-16.6,2.9-33.6,6.6-50.1,10.2c-38.6,8.4-78.5,17.1-117.4,17.1c-22.5,0-42.6-2.8-61.4-8.7c-42.2-13.1-77.3-41.6-111.3-69.3l-0.1-0.1c-3-2.4-6-4.9-8.9-7.3C562.1,204.4,490,155.1,428.6,114.2c-9.3-6.1-19.2-12.6-29.5-18.8c-21.1-12.7-49.3-27.6-81-30.3C314.1,64.8,310.9,64.7,308,64.7z" style="translate: none; rotate: none; scale: none; transform-origin: 0px 0px;" data-svg-origin="71.39979553222656 63.499916076660156" transform="matrix(1,0,0,1,0,0)"></path><path data-v-48262919="" class="st0" d="M1024.2,1545.5c-96.6-0.7-173.2-12-241.1-35.4c-65.5-22.5-126.5-61.3-171.9-109.3c-49.8-52.6-79.3-114-85.4-177.6c-1.7-17.2-1.7-34.8-1.6-51.8c0-17.7,0-36.1-1.9-54c-5.4-51-26.5-103.8-64.5-161.6C424.4,905,384.3,859,338.7,818.9c-25-22-52.2-42.5-78.4-62.3c-42.8-32.4-87.1-65.8-123.3-106.5c-65.8-74.1-104-173.4-104.7-272.5c-0.7-99.1,36.1-198.9,100.8-274c21.6-25,46-45.5,70.5-59.3c25.7-14.5,51.6-21.8,77-21.8c3.1,0,6.2,0.1,9.3,0.3c42.9,3.1,81.3,27.1,117,51.5c72.6,49.3,144,103.5,212.1,160.9l5.8,4.9c37.1,31.5,75.4,64,121.7,78.7c20.1,6.4,41.6,9.5,65.6,9.5c41.7,0,84.5-9.5,125.8-18.8c17.1-3.8,34.8-7.8,52-10.9c13.4-2.5,31-5.4,48.9-5.4c14.3,0,27,1.8,38.7,5.4c24.5,7.6,45.4,24.2,58.9,36c42.9,37.6,78,85.6,107.3,146.8c23.4,49,42.5,104.7,60.1,175.5c7.2,29.1,13.9,58.9,20.3,87.7c20,89.5,40.6,182.1,81.1,265.7c9.6,19.8,20.4,39.4,30.9,58.3c17.5,31.7,35.7,64.4,48.3,98.9c14.6,39.4,18.6,73.4,12.2,103.8c-4.4,21.4-14,40.9-26.9,63.7c-37.9,66.9-78.2,116.1-123.3,150.3c-36.3,27.5-78,45.9-120.7,53.3c-19.4,3.4-38,4.1-59.9,4.1c-4.3,0-8.6,0-13,0l-1.1,0c-2.4,0-4.8,0-7.2,0l-2.1,0c-18.9,0-38.1,0.7-56.6,1.4l-0.6,0c-18.8,0.7-38.3,1.4-57.5,1.4C1026.7,1545.5,1025.4,1545.5,1024.2,1545.5z M281.3,23.6c-20.9,0-42.3,5-63.5,14.7c-29.2,13.4-57.3,35.6-83.6,66C69.6,179.1,32.9,278.7,33.6,377.5c0.7,98.8,38.7,197.8,104.3,271.7c36.1,40.6,80.3,74,123.1,106.4c26.3,19.9,53.4,40.4,78.5,62.4c45.7,40.2,85.8,86.3,119.3,137.1c38.1,58,59.3,111,64.7,162.2c1.9,17.9,1.9,36.3,1.9,54.1c0,17,0,34.6,1.6,51.7c6.1,63.4,35.5,124.6,85.1,176.9c45.2,47.8,106.1,86.5,171.4,109c67.8,23.4,144.3,34.7,240.7,35.4c1.1,0,2.3,0,3.4,0c19.5,0,38.9-0.7,57.8-1.4l1.9-0.1c17.9-0.7,36.5-1.3,54.7-1.3c0.9,0,1.9,0,2.8,0c2.4,0,4.8,0,7.2,0l1,0c4.4,0,8.8,0,13.1,0c21.8,0,40.3-0.7,59.7-4.1c42.5-7.4,84-25.7,120.1-53.1c44.9-34.1,85.1-83.1,122.9-149.9c12.9-22.7,22.3-42.1,26.7-63.3c6.3-30.2,2.3-64-12.2-103.2c-12.6-34.4-30.7-67.1-48.2-98.8c-10.5-19-21.3-38.6-30.9-58.4c-40.5-83.7-61.2-176.4-81.1-266c-6.4-28.8-13.1-58.6-20.3-87.7c-17.5-70.7-36.6-126.3-60-175.2c-29.2-61-64.2-108.9-107-146.4c-13.5-11.8-34.2-28.3-58.5-35.8c-11.6-3.6-24.1-5.3-38.3-5.3c-17.9,0-35.4,2.9-48.7,5.3c-17.2,3.2-34.9,7.1-51.9,10.9c-41.5,9.2-84.3,18.8-126.1,18.8c-24.1,0-45.7-3.1-65.9-9.6c-46.5-14.8-85-47.4-122.1-78.9l-5.8-4.9c-68.2-57.4-139.5-111.6-212-160.9C370.8,50.9,332.5,27,290,23.9C287.1,23.7,284.2,23.6,281.3,23.6z" style="translate: none; rotate: none; scale: none; transform-origin: 0px 0px;" data-svg-origin="32.29021072387695 22.500038146972656" transform="matrix(1,0,0,1,0,0)"></path><path data-v-48262919="" class="animation-path" id="animation-path" d="M1024.2,1545.5c-96.6-0.7-173.2-12-241.1-35.4c-65.5-22.5-126.5-61.3-171.9-109.3c-49.8-52.6-79.3-114-85.4-177.6c-1.7-17.2-1.7-34.8-1.6-51.8c0-17.7,0-36.1-1.9-54c-5.4-51-26.5-103.8-64.5-161.6C424.4,905,384.3,859,338.7,818.9c-25-22-52.2-42.5-78.4-62.3c-42.8-32.4-87.1-65.8-123.3-106.5c-65.8-74.1-104-173.4-104.7-272.5c-0.7-99.1,36.1-198.9,100.8-274c21.6-25,46-45.5,70.5-59.3c25.7-14.5,51.6-21.8,77-21.8c3.1,0,6.2,0.1,9.3,0.3c42.9,3.1,81.3,27.1,117,51.5c72.6,49.3,144,103.5,212.1,160.9l5.8,4.9c37.1,31.5,75.4,64,121.7,78.7c20.1,6.4,41.6,9.5,65.6,9.5c41.7,0,84.5-9.5,125.8-18.8c17.1-3.8,34.8-7.8,52-10.9c13.4-2.5,31-5.4,48.9-5.4c14.3,0,27,1.8,38.7,5.4c24.5,7.6,45.4,24.2,58.9,36c42.9,37.6,78,85.6,107.3,146.8c23.4,49,42.5,104.7,60.1,175.5c7.2,29.1,13.9,58.9,20.3,87.7c20,89.5,40.6,182.1,81.1,265.7c9.6,19.8,20.4,39.4,30.9,58.3c17.5,31.7,35.7,64.4,48.3,98.9c14.6,39.4,18.6,73.4,12.2,103.8c-4.4,21.4-14,40.9-26.9,63.7c-37.9,66.9-78.2,116.1-123.3,150.3c-36.3,27.5-78,45.9-120.7,53.3c-19.4,3.4-38,4.1-59.9,4.1c-4.3,0-8.6,0-13,0l-1.1,0c-2.4,0-4.8,0-7.2,0l-2.1,0c-18.9,0-38.1,0.7-56.6,1.4l-0.6,0c-18.8,0.7-38.3,1.4-57.5,1.4C1026.7,1545.5,1025.4,1545.5,1024.2,1545.5z M281.3,23.6c-20.9,0-42.3,5-63.5,14.7c-29.2,13.4-57.3,35.6-83.6,66C69.6,179.1,32.9,278.7,33.6,377.5c0.7,98.8,38.7,197.8,104.3,271.7c36.1,40.6,80.3,74,123.1,106.4c26.3,19.9,53.4,40.4,78.5,62.4c45.7,40.2,85.8,86.3,119.3,137.1c38.1,58,59.3,111,64.7,162.2c1.9,17.9,1.9,36.3,1.9,54.1c0,17,0,34.6,1.6,51.7c6.1,63.4,35.5,124.6,85.1,176.9c45.2,47.8,106.1,86.5,171.4,109c67.8,23.4,144.3,34.7,240.7,35.4c1.1,0,2.3,0,3.4,0c19.5,0,38.9-0.7,57.8-1.4l1.9-0.1c17.9-0.7,36.5-1.3,54.7-1.3c0.9,0,1.9,0,2.8,0c2.4,0,4.8,0,7.2,0l1,0c4.4,0,8.8,0,13.1,0c21.8,0,40.3-0.7,59.7-4.1c42.5-7.4,84-25.7,120.1-53.1c44.9-34.1,85.1-83.1,122.9-149.9c12.9-22.7,22.3-42.1,26.7-63.3c6.3-30.2,2.3-64-12.2-103.2c-12.6-34.4-30.7-67.1-48.2-98.8c-10.5-19-21.3-38.6-30.9-58.4c-40.5-83.7-61.2-176.4-81.1-266c-6.4-28.8-13.1-58.6-20.3-87.7c-17.5-70.7-36.6-126.3-60-175.2c-29.2-61-64.2-108.9-107-146.4c-13.5-11.8-34.2-28.3-58.5-35.8c-11.6-3.6-24.1-5.3-38.3-5.3c-17.9,0-35.4,2.9-48.7,5.3c-17.2,3.2-34.9,7.1-51.9,10.9c-41.5,9.2-84.3,18.8-126.1,18.8c-24.1,0-45.7-3.1-65.9-9.6c-46.5-14.8-85-47.4-122.1-78.9l-5.8-4.9c-68.2-57.4-139.5-111.6-212-160.9C370.8,50.9,332.5,27,290,23.9C287.1,23.7,284.2,23.6,281.3,23.6z" style="translate: none; rotate: none; scale: none; transform-origin: 0px 0px;" data-svg-origin="32.29021072387695 22.500038146972656" transform="matrix(1,0,0,1,0,0)"></path></svg>